<svg width="20" height="17" viewBox="0 0 20 17" fill="none" xmlns="http://www.w3.org/2000/svg">
<path d="M13.4173 9.08203L12.209 7.8737C12.334 7.22092 12.1465 6.60981 11.6465 6.04036C11.1465 5.47092 10.5007 5.2487 9.70899 5.3737L8.50065 4.16536C8.73676 4.05425 8.97635 3.97092 9.2194 3.91536C9.46246 3.85981 9.72287 3.83203 10.0007 3.83203C11.0423 3.83203 11.9277 4.19661 12.6569 4.92578C13.3861 5.65495 13.7507 6.54036 13.7507 7.58203C13.7507 7.85981 13.7229 8.12022 13.6673 8.36328C13.6118 8.60634 13.5284 8.84592 13.4173 9.08203ZM16.084 11.707L14.8757 10.5404C15.4034 10.1376 15.8722 9.69661 16.2819 9.21745C16.6916 8.73828 17.0423 8.19314 17.334 7.58203C16.6395 6.17925 15.643 5.06467 14.3444 4.23828C13.0458 3.41189 11.5979 2.9987 10.0007 2.9987C9.59787 2.9987 9.20204 3.02648 8.81315 3.08203C8.42426 3.13759 8.04232 3.22092 7.66732 3.33203L6.37565 2.04036C6.9451 1.80425 7.52843 1.62717 8.12565 1.50911C8.72287 1.39106 9.34787 1.33203 10.0007 1.33203C12.0979 1.33203 13.9659 1.91189 15.6048 3.07161C17.2437 4.23134 18.4312 5.73481 19.1673 7.58203C18.8479 8.40147 18.4277 9.16189 17.9069 9.86328C17.3861 10.5647 16.7784 11.1793 16.084 11.707ZM16.5007 16.832L13.0007 13.3737C12.5145 13.5265 12.025 13.6411 11.5319 13.7174C11.0388 13.7938 10.5284 13.832 10.0007 13.832C7.90343 13.832 6.03537 13.2522 4.39648 12.0924C2.7576 10.9327 1.5701 9.42925 0.833984 7.58203C1.12565 6.84592 1.49371 6.16189 1.93815 5.52995C2.3826 4.898 2.88954 4.33203 3.45898 3.83203L1.16732 1.4987L2.33398 0.332031L17.6673 15.6654L16.5007 16.832ZM4.62565 4.9987C4.22287 5.35981 3.85482 5.75564 3.52148 6.1862C3.18815 6.61675 2.90343 7.08203 2.66732 7.58203C3.36176 8.98481 4.35829 10.0994 5.6569 10.9258C6.95551 11.7522 8.40343 12.1654 10.0007 12.1654C10.2784 12.1654 10.5493 12.148 10.8132 12.1133C11.077 12.0786 11.3479 12.0404 11.6257 11.9987L10.8757 11.207C10.7229 11.2487 10.577 11.2799 10.4382 11.3008C10.2993 11.3216 10.1534 11.332 10.0007 11.332C8.95899 11.332 8.07357 10.9674 7.3444 10.2383C6.61523 9.50911 6.25065 8.6237 6.25065 7.58203C6.25065 7.42925 6.26107 7.28342 6.2819 7.14453C6.30273 7.00564 6.33399 6.85981 6.37565 6.70703L4.62565 4.9987Z" fill="#b3b3b3"/>
</svg>