<svg width="20" height="13" viewBox="0 0 20 13" fill="none" xmlns="http://www.w3.org/2000/svg">
<path d="M10.0007 10.3359C11.0423 10.3359 11.9277 9.97135 12.6569 9.24219C13.3861 8.51302 13.7507 7.6276 13.7507 6.58594C13.7507 5.54427 13.3861 4.65885 12.6569 3.92969C11.9277 3.20052 11.0423 2.83594 10.0007 2.83594C8.95899 2.83594 8.07357 3.20052 7.3444 3.92969C6.61523 4.65885 6.25065 5.54427 6.25065 6.58594C6.25065 7.6276 6.61523 8.51302 7.3444 9.24219C8.07357 9.97135 8.95899 10.3359 10.0007 10.3359ZM10.0007 8.83594C9.37565 8.83594 8.8444 8.61719 8.4069 8.17969C7.9694 7.74219 7.75065 7.21094 7.75065 6.58594C7.75065 5.96094 7.9694 5.42969 8.4069 4.99219C8.8444 4.55469 9.37565 4.33594 10.0007 4.33594C10.6257 4.33594 11.1569 4.55469 11.5944 4.99219C12.0319 5.42969 12.2507 5.96094 12.2507 6.58594C12.2507 7.21094 12.0319 7.74219 11.5944 8.17969C11.1569 8.61719 10.6257 8.83594 10.0007 8.83594ZM10.0007 12.8359C7.97287 12.8359 6.12565 12.27 4.45898 11.138C2.79232 10.0061 1.58398 8.48872 0.833984 6.58594C1.58398 4.68316 2.79232 3.1658 4.45898 2.03385C6.12565 0.90191 7.97287 0.335938 10.0007 0.335938C12.0284 0.335938 13.8757 0.90191 15.5423 2.03385C17.209 3.1658 18.4173 4.68316 19.1673 6.58594C18.4173 8.48872 17.209 10.0061 15.5423 11.138C13.8757 12.27 12.0284 12.8359 10.0007 12.8359ZM10.0007 11.1693C11.5701 11.1693 13.0111 10.7561 14.3236 9.92969C15.6361 9.1033 16.6395 7.98872 17.334 6.58594C16.6395 5.18316 15.6361 4.06858 14.3236 3.24219C13.0111 2.4158 11.5701 2.0026 10.0007 2.0026C8.43121 2.0026 6.99024 2.4158 5.67773 3.24219C4.36523 4.06858 3.36176 5.18316 2.66732 6.58594C3.36176 7.98872 4.36523 9.1033 5.67773 9.92969C6.99024 10.7561 8.43121 11.1693 10.0007 11.1693Z" fill="#b3b3b3"/>
</svg>